<svg xmlns="http://www.w3.org/2000/svg">
  <symbol id="search" viewBox="0 0 20 20" fill="none" style="stroke:currentColor">
    <path d="M9.16667 15.8333C12.8486 15.8333 15.8333 12.8486 15.8333 9.16667C15.8333 5.48477 12.8486 2.5 9.16667 2.5C5.48477 2.5 2.5 5.48477 2.5 9.16667C2.5 12.8486 5.48477 15.8333 9.16667 15.8333Z" stroke-width="2" stroke-linecap="round" stroke-linejoin="round"/>
    <path d="M17.5 17.5L13.9167 13.9167" stroke-width="2" stroke-linecap="round" stroke-linejoin="round"/>
  </symbol>
  <symbol id="support" viewBox="0 0 25 24" fill="none">
    <path d="M3.25 11H6.25C6.78043 11 7.28914 11.2107 7.66421 11.5858C8.03929 11.9609 8.25 12.4696 8.25 13V16C8.25 16.5304 8.03929 17.0391 7.66421 17.4142C7.28914 17.7893 6.78043 18 6.25 18H5.25C4.71957 18 4.21086 17.7893 3.83579 17.4142C3.46071 17.0391 3.25 16.5304 3.25 16V11ZM3.25 11C3.25 9.8181 3.48279 8.64778 3.93508 7.55585C4.38738 6.46392 5.05031 5.47177 5.88604 4.63604C6.72177 3.80031 7.71392 3.13738 8.80585 2.68508C9.89778 2.23279 11.0681 2 12.25 2C13.4319 2 14.6022 2.23279 15.6942 2.68508C16.7861 3.13738 17.7782 3.80031 18.614 4.63604C19.4497 5.47177 20.1126 6.46392 20.5649 7.55585C21.0172 8.64778 21.25 9.8181 21.25 11M21.25 11V16C21.25 16.5304 21.0393 17.0391 20.6642 17.4142C20.2891 17.7893 19.7804 18 19.25 18H18.25C17.7196 18 17.2109 17.7893 16.8358 17.4142C16.4607 17.0391 16.25 16.5304 16.25 16V13C16.25 12.4696 16.4607 11.9609 16.8358 11.5858C17.2109 11.2107 17.7196 11 18.25 11H21.25Z" style="stroke:currentColor" stroke-width="2" stroke-linecap="round" stroke-linejoin="round"/>
    <path d="M21.25 16V18C21.25 19.0609 20.8286 20.0783 20.0784 20.8284C19.3283 21.5786 18.3109 22 17.25 22H12.25" style="stroke:currentColor" stroke-width="2" stroke-linecap="round" stroke-linejoin="round"/>
  </symbol>
  <symbol id="trash" viewBox="0 0 20 20">
    <path fill-rule="evenodd" d="M9 2a1 1 0 00-.894.553L7.382 4H4a1 1 0 000 2v10a2 2 0 002 2h8a2 2 0 002-2V6a1 1 0 100-2h-3.382l-.724-1.447A1 1 0 0011 2H9zM7 8a1 1 0 012 0v6a1 1 0 11-2 0V8zm5-1a1 1 0 00-1 1v6a1 1 0 102 0V8a1 1 0 00-1-1z" clip-rule="evenodd"></path>
  </symbol>
  <symbol id="edit" aria-hidden="true" viewBox="0 0 20 20">
    <path d="M17.414 2.586a2 2 0 00-2.828 0L7 10.172V13h2.828l7.586-7.586a2 2 0 000-2.828z"></path>
    <path fill-rule="evenodd" d="M2 6a2 2 0 012-2h4a1 1 0 010 2H4v10h10v-4a1 1 0 112 0v4a2 2 0 01-2 2H4a2 2 0 01-2-2V6z" clip-rule="evenodd"></path>
  </symbol>
  <symbol id="checked" viewBox="0 0 14 14" fill="none" stroke="currentColor">
    <path d="M11.375 3.5L5.25 10.5L2.625 7.875" stroke-width="1.4" stroke-linecap="round" stroke-linejoin="round"/>
  </symbol>
  <symbol id="no-image" fill="currentColor" viewBox="0 0 20 18">
    <path d="M18 0H2a2 2 0 0 0-2 2v14a2 2 0 0 0 2 2h16a2 2 0 0 0 2-2V2a2 2 0 0 0-2-2Zm-5.5 4a1.5 1.5 0 1 1 0 3 1.5 1.5 0 0 1 0-3Zm4.376 10.481A1 1 0 0 1 16 15H4a1 1 0 0 1-.895-1.447l3.5-7A1 1 0 0 1 7.468 6a.965.965 0 0 1 .9.5l2.775 4.757 1.546-1.887a1 1 0 0 1 1.618.1l2.541 4a1 1 0 0 1 .028 1.011Z"/>
  </symbol>
  <symbol id="close" viewBox="0 0 24 24" fill="none" stroke="currentColor">
    <path d="M18 6L6 18" stroke-width="2" stroke-linecap="round" stroke-linejoin="round"/>
    <path d="M6 6L18 18" stroke-width="2" stroke-linecap="round" stroke-linejoin="round"/>
  </symbol>
  <symbol id="info" viewBox="0 0 16 16" fill="none" stroke="currentColor">
    <path d="M8 14C11.3137 14 14 11.3137 14 8C14 4.68629 11.3137 2 8 2C4.68629 2 2 4.68629 2 8C2 11.3137 4.68629 14 8 14Z" stroke-width="2" stroke-linecap="round" stroke-linejoin="round"/>
    <path d="M8 11V8" stroke-width="2" stroke-linecap="round" stroke-linejoin="round"/>
    <path d="M8 5.33333H8.00667" stroke-width="2" stroke-linecap="round" stroke-linejoin="round"/>
  </symbol>
  <symbol id="error" aria-hidden="true" fill="#fb2c36" viewBox="0 0 20 20">
    <path d="M10 .5a9.5 9.5 0 1 0 9.5 9.5A9.51 9.51 0 0 0 10 .5Zm3.707 11.793a1 1 0 1 1-1.414 1.414L10 11.414l-2.293 2.293a1 1 0 0 1-1.414-1.414L8.586 10 6.293 7.707a1 1 0 0 1 1.414-1.414L10 8.586l2.293-2.293a1 1 0 0 1 1.414 1.414L11.414 10l2.293 2.293Z"/>
  </symbol>
  <symbol id="warning" aria-hidden="true" fill="#ff6900" viewBox="0 0 20 20">
    <path d="M10 .5a9.5 9.5 0 1 0 9.5 9.5A9.51 9.51 0 0 0 10 .5ZM10 15a1 1 0 1 1 0-2 1 1 0 0 1 0 2Zm1-4a1 1 0 0 1-2 0V6a1 1 0 0 1 2 0v5Z"/>
  </symbol>
  <symbol id="success" aria-hidden="true" fill="#00c951" viewBox="0 0 20 20">
    <path d="M10 .5a9.5 9.5 0 1 0 9.5 9.5A9.51 9.51 0 0 0 10 .5Zm3.707 8.207-4 4a1 1 0 0 1-1.414 0l-2-2a1 1 0 0 1 1.414-1.414L9 10.586l3.293-3.293a1 1 0 0 1 1.414 1.414Z"/>
  </symbol>
</svg>
